<svg xmlns="http://www.w3.org/2000/svg" xmlns:xlink="http://www.w3.org/1999/xlink" viewBox="1990 0 1920 1080"><defs><style>.a{clip-path:url(#b);}.b{fill:#99a6ad;}.c{fill:#fff;}</style><clipPath id="b"><rect x="1990" width="1920" height="1080"/></clipPath></defs><g id="a" class="a"><rect class="c" x="1990" width="1920" height="1080"/><g transform="translate(2170.25 286.968)"><path class="b" d="M66.851,149.54a4.13,4.13,0,0,0,3.091,3.449l18.705,4.676a.866.866,0,0,1,.01,1.681l-18.725,4.681a4.116,4.116,0,0,0-3.081,3.447l-4.959,36.364a.867.867,0,0,1-1.719,0l-4.959-36.364a4.116,4.116,0,0,0-3.081-3.447l-18.726-4.681a.864.864,0,0,1,0-1.678l18.727-4.682a4.116,4.116,0,0,0,3.08-3.446l4.959-36.365a.867.867,0,0,1,1.719,0C63.435,124.49,66.545,147.3,66.851,149.54Z" transform="translate(0 -86.067)"/><path class="b" d="M275.016,25.535a2.684,2.684,0,0,1-2.061-2.207L269.721.559a.651.651,0,0,0-1.29,0L265.2,23.327a2.675,2.675,0,0,1-2.053,2.206l-12.1,2.9a.647.647,0,0,0,0,1.259l12.1,2.9a2.675,2.675,0,0,1,2.054,2.206l3.224,22.7a.661.661,0,0,0,1.309,0l3.224-22.7a2.675,2.675,0,0,1,2.054-2.206l12.09-2.9a.65.65,0,0,0-.009-1.265Z" transform="translate(-166.737 0)"/><path class="b" d="M375.289,337.334a2.168,2.168,0,0,1-1.649-1.793l-2.462-17.6a.649.649,0,0,0-1.285.013l-2.46,17.587a2.16,2.16,0,0,1-1.643,1.792l-9.2,2.242a.647.647,0,0,0,0,1.258l9.2,2.241a2.16,2.16,0,0,1,1.643,1.792l2.46,17.586a.65.65,0,0,0,1.287,0l2.46-17.586a2.16,2.16,0,0,1,1.643-1.792l9.2-2.241a.648.648,0,0,0-.008-1.26Z" transform="translate(-247.544 -242.979)"/><path class="b" d="M61.894,310.641,66.263,278.6a188.469,188.469,0,0,1-10.445-26.67l-.6,4.41a4.116,4.116,0,0,1-3.08,3.446l-18.727,4.682a.864.864,0,0,0,0,1.678l18.726,4.681a4.116,4.116,0,0,1,3.081,3.447l4.959,36.364A.867.867,0,0,0,61.894,310.641Z" transform="translate(-0.002 -192.87)"/><path class="b" d="M265.487,90.783l-.29,2.045a2.675,2.675,0,0,1-2.053,2.206l-12.1,2.9a.647.647,0,0,0,0,1.259l12.1,2.9a2.675,2.675,0,0,1,2.054,2.206l3.224,22.7a.661.661,0,0,0,1.309,0l2.885-20.314A50.3,50.3,0,0,1,265.487,90.783Z" transform="translate(-166.736 -69.5)"/><path class="b" d="M367.437,400.5l2.459,17.586a.65.65,0,0,0,1.287,0l2.3-16.48a27.064,27.064,0,0,1-5.9-11.549l-.156,1.117a2.16,2.16,0,0,1-1.643,1.792l-9.2,2.242a.647.647,0,0,0,0,1.258l9.2,2.241A2.16,2.16,0,0,1,367.437,400.5Z" transform="translate(-247.546 -298.613)"/></g><g transform="translate(2452.25 539.968)"><path class="b" d="M66.851,149.54a4.13,4.13,0,0,0,3.091,3.449l18.705,4.676a.866.866,0,0,1,.01,1.681l-18.725,4.681a4.116,4.116,0,0,0-3.081,3.447l-4.959,36.364a.867.867,0,0,1-1.719,0l-4.959-36.364a4.116,4.116,0,0,0-3.081-3.447l-18.726-4.681a.864.864,0,0,1,0-1.678l18.727-4.682a4.116,4.116,0,0,0,3.08-3.446l4.959-36.365a.867.867,0,0,1,1.719,0C63.435,124.49,66.545,147.3,66.851,149.54Z" transform="translate(0 -86.067)"/><path class="b" d="M275.016,25.535a2.684,2.684,0,0,1-2.061-2.207L269.721.559a.651.651,0,0,0-1.29,0L265.2,23.327a2.675,2.675,0,0,1-2.053,2.206l-12.1,2.9a.647.647,0,0,0,0,1.259l12.1,2.9a2.675,2.675,0,0,1,2.054,2.206l3.224,22.7a.661.661,0,0,0,1.309,0l3.224-22.7a2.675,2.675,0,0,1,2.054-2.206l12.09-2.9a.65.65,0,0,0-.009-1.265Z" transform="translate(-166.737 0)"/><path class="b" d="M375.289,337.334a2.168,2.168,0,0,1-1.649-1.793l-2.462-17.6a.649.649,0,0,0-1.285.013l-2.46,17.587a2.16,2.16,0,0,1-1.643,1.792l-9.2,2.242a.647.647,0,0,0,0,1.258l9.2,2.241a2.16,2.16,0,0,1,1.643,1.792l2.46,17.586a.65.65,0,0,0,1.287,0l2.46-17.586a2.16,2.16,0,0,1,1.643-1.792l9.2-2.241a.648.648,0,0,0-.008-1.26Z" transform="translate(-247.544 -242.979)"/><path class="b" d="M61.894,310.641,66.263,278.6a188.469,188.469,0,0,1-10.445-26.67l-.6,4.41a4.116,4.116,0,0,1-3.08,3.446l-18.727,4.682a.864.864,0,0,0,0,1.678l18.726,4.681a4.116,4.116,0,0,1,3.081,3.447l4.959,36.364A.867.867,0,0,0,61.894,310.641Z" transform="translate(-0.002 -192.87)"/><path class="b" d="M265.487,90.783l-.29,2.045a2.675,2.675,0,0,1-2.053,2.206l-12.1,2.9a.647.647,0,0,0,0,1.259l12.1,2.9a2.675,2.675,0,0,1,2.054,2.206l3.224,22.7a.661.661,0,0,0,1.309,0l2.885-20.314A50.3,50.3,0,0,1,265.487,90.783Z" transform="translate(-166.736 -69.5)"/><path class="b" d="M367.437,400.5l2.459,17.586a.65.65,0,0,0,1.287,0l2.3-16.48a27.064,27.064,0,0,1-5.9-11.549l-.156,1.117a2.16,2.16,0,0,1-1.643,1.792l-9.2,2.242a.647.647,0,0,0,0,1.258l9.2,2.241A2.16,2.16,0,0,1,367.437,400.5Z" transform="translate(-247.546 -298.613)"/></g><g transform="translate(2591.25 160.968)"><path class="b" d="M66.851,149.54a4.13,4.13,0,0,0,3.091,3.449l18.705,4.676a.866.866,0,0,1,.01,1.681l-18.725,4.681a4.116,4.116,0,0,0-3.081,3.447l-4.959,36.364a.867.867,0,0,1-1.719,0l-4.959-36.364a4.116,4.116,0,0,0-3.081-3.447l-18.726-4.681a.864.864,0,0,1,0-1.678l18.727-4.682a4.116,4.116,0,0,0,3.08-3.446l4.959-36.365a.867.867,0,0,1,1.719,0C63.435,124.49,66.545,147.3,66.851,149.54Z" transform="translate(0 -86.067)"/><path class="b" d="M275.016,25.535a2.684,2.684,0,0,1-2.061-2.207L269.721.559a.651.651,0,0,0-1.29,0L265.2,23.327a2.675,2.675,0,0,1-2.053,2.206l-12.1,2.9a.647.647,0,0,0,0,1.259l12.1,2.9a2.675,2.675,0,0,1,2.054,2.206l3.224,22.7a.661.661,0,0,0,1.309,0l3.224-22.7a2.675,2.675,0,0,1,2.054-2.206l12.09-2.9a.65.65,0,0,0-.009-1.265Z" transform="translate(-166.737 0)"/><path class="b" d="M375.289,337.334a2.168,2.168,0,0,1-1.649-1.793l-2.462-17.6a.649.649,0,0,0-1.285.013l-2.46,17.587a2.16,2.16,0,0,1-1.643,1.792l-9.2,2.242a.647.647,0,0,0,0,1.258l9.2,2.241a2.16,2.16,0,0,1,1.643,1.792l2.46,17.586a.65.65,0,0,0,1.287,0l2.46-17.586a2.16,2.16,0,0,1,1.643-1.792l9.2-2.241a.648.648,0,0,0-.008-1.26Z" transform="translate(-247.544 -242.979)"/><path class="b" d="M61.894,310.641,66.263,278.6a188.469,188.469,0,0,1-10.445-26.67l-.6,4.41a4.116,4.116,0,0,1-3.08,3.446l-18.727,4.682a.864.864,0,0,0,0,1.678l18.726,4.681a4.116,4.116,0,0,1,3.081,3.447l4.959,36.364A.867.867,0,0,0,61.894,310.641Z" transform="translate(-0.002 -192.87)"/><path class="b" d="M265.487,90.783l-.29,2.045a2.675,2.675,0,0,1-2.053,2.206l-12.1,2.9a.647.647,0,0,0,0,1.259l12.1,2.9a2.675,2.675,0,0,1,2.054,2.206l3.224,22.7a.661.661,0,0,0,1.309,0l2.885-20.314A50.3,50.3,0,0,1,265.487,90.783Z" transform="translate(-166.736 -69.5)"/><path class="b" d="M367.437,400.5l2.459,17.586a.65.65,0,0,0,1.287,0l2.3-16.48a27.064,27.064,0,0,1-5.9-11.549l-.156,1.117a2.16,2.16,0,0,1-1.643,1.792l-9.2,2.242a.647.647,0,0,0,0,1.258l9.2,2.241A2.16,2.16,0,0,1,367.437,400.5Z" transform="translate(-247.546 -298.613)"/></g><g transform="translate(3100.25 453.968)"><path class="b" d="M66.851,149.54a4.13,4.13,0,0,0,3.091,3.449l18.705,4.676a.866.866,0,0,1,.01,1.681l-18.725,4.681a4.116,4.116,0,0,0-3.081,3.447l-4.959,36.364a.867.867,0,0,1-1.719,0l-4.959-36.364a4.116,4.116,0,0,0-3.081-3.447l-18.726-4.681a.864.864,0,0,1,0-1.678l18.727-4.682a4.116,4.116,0,0,0,3.08-3.446l4.959-36.365a.867.867,0,0,1,1.719,0C63.435,124.49,66.545,147.3,66.851,149.54Z" transform="translate(0 -86.067)"/><path class="b" d="M275.016,25.535a2.684,2.684,0,0,1-2.061-2.207L269.721.559a.651.651,0,0,0-1.29,0L265.2,23.327a2.675,2.675,0,0,1-2.053,2.206l-12.1,2.9a.647.647,0,0,0,0,1.259l12.1,2.9a2.675,2.675,0,0,1,2.054,2.206l3.224,22.7a.661.661,0,0,0,1.309,0l3.224-22.7a2.675,2.675,0,0,1,2.054-2.206l12.09-2.9a.65.65,0,0,0-.009-1.265Z" transform="translate(-166.737 0)"/><path class="b" d="M375.289,337.334a2.168,2.168,0,0,1-1.649-1.793l-2.462-17.6a.649.649,0,0,0-1.285.013l-2.46,17.587a2.16,2.16,0,0,1-1.643,1.792l-9.2,2.242a.647.647,0,0,0,0,1.258l9.2,2.241a2.16,2.16,0,0,1,1.643,1.792l2.46,17.586a.65.65,0,0,0,1.287,0l2.46-17.586a2.16,2.16,0,0,1,1.643-1.792l9.2-2.241a.648.648,0,0,0-.008-1.26Z" transform="translate(-247.544 -242.979)"/><path class="b" d="M61.894,310.641,66.263,278.6a188.469,188.469,0,0,1-10.445-26.67l-.6,4.41a4.116,4.116,0,0,1-3.08,3.446l-18.727,4.682a.864.864,0,0,0,0,1.678l18.726,4.681a4.116,4.116,0,0,1,3.081,3.447l4.959,36.364A.867.867,0,0,0,61.894,310.641Z" transform="translate(-0.002 -192.87)"/><path class="b" d="M265.487,90.783l-.29,2.045a2.675,2.675,0,0,1-2.053,2.206l-12.1,2.9a.647.647,0,0,0,0,1.259l12.1,2.9a2.675,2.675,0,0,1,2.054,2.206l3.224,22.7a.661.661,0,0,0,1.309,0l2.885-20.314A50.3,50.3,0,0,1,265.487,90.783Z" transform="translate(-166.736 -69.5)"/><path class="b" d="M367.437,400.5l2.459,17.586a.65.65,0,0,0,1.287,0l2.3-16.48a27.064,27.064,0,0,1-5.9-11.549l-.156,1.117a2.16,2.16,0,0,1-1.643,1.792l-9.2,2.242a.647.647,0,0,0,0,1.258l9.2,2.241A2.16,2.16,0,0,1,367.437,400.5Z" transform="translate(-247.546 -298.613)"/></g><g transform="translate(3361.25 750.968)"><path class="b" d="M66.851,149.54a4.13,4.13,0,0,0,3.091,3.449l18.705,4.676a.866.866,0,0,1,.01,1.681l-18.725,4.681a4.116,4.116,0,0,0-3.081,3.447l-4.959,36.364a.867.867,0,0,1-1.719,0l-4.959-36.364a4.116,4.116,0,0,0-3.081-3.447l-18.726-4.681a.864.864,0,0,1,0-1.678l18.727-4.682a4.116,4.116,0,0,0,3.08-3.446l4.959-36.365a.867.867,0,0,1,1.719,0C63.435,124.49,66.545,147.3,66.851,149.54Z" transform="translate(0 -86.067)"/><path class="b" d="M275.016,25.535a2.684,2.684,0,0,1-2.061-2.207L269.721.559a.651.651,0,0,0-1.29,0L265.2,23.327a2.675,2.675,0,0,1-2.053,2.206l-12.1,2.9a.647.647,0,0,0,0,1.259l12.1,2.9a2.675,2.675,0,0,1,2.054,2.206l3.224,22.7a.661.661,0,0,0,1.309,0l3.224-22.7a2.675,2.675,0,0,1,2.054-2.206l12.09-2.9a.65.65,0,0,0-.009-1.265Z" transform="translate(-166.737 0)"/><path class="b" d="M375.289,337.334a2.168,2.168,0,0,1-1.649-1.793l-2.462-17.6a.649.649,0,0,0-1.285.013l-2.46,17.587a2.16,2.16,0,0,1-1.643,1.792l-9.2,2.242a.647.647,0,0,0,0,1.258l9.2,2.241a2.16,2.16,0,0,1,1.643,1.792l2.46,17.586a.65.65,0,0,0,1.287,0l2.46-17.586a2.16,2.16,0,0,1,1.643-1.792l9.2-2.241a.648.648,0,0,0-.008-1.26Z" transform="translate(-247.544 -242.979)"/><path class="b" d="M61.894,310.641,66.263,278.6a188.469,188.469,0,0,1-10.445-26.67l-.6,4.41a4.116,4.116,0,0,1-3.08,3.446l-18.727,4.682a.864.864,0,0,0,0,1.678l18.726,4.681a4.116,4.116,0,0,1,3.081,3.447l4.959,36.364A.867.867,0,0,0,61.894,310.641Z" transform="translate(-0.002 -192.87)"/><path class="b" d="M265.487,90.783l-.29,2.045a2.675,2.675,0,0,1-2.053,2.206l-12.1,2.9a.647.647,0,0,0,0,1.259l12.1,2.9a2.675,2.675,0,0,1,2.054,2.206l3.224,22.7a.661.661,0,0,0,1.309,0l2.885-20.314A50.3,50.3,0,0,1,265.487,90.783Z" transform="translate(-166.736 -69.5)"/><path class="b" d="M367.437,400.5l2.459,17.586a.65.65,0,0,0,1.287,0l2.3-16.48a27.064,27.064,0,0,1-5.9-11.549l-.156,1.117a2.16,2.16,0,0,1-1.643,1.792l-9.2,2.242a.647.647,0,0,0,0,1.258l9.2,2.241A2.16,2.16,0,0,1,367.437,400.5Z" transform="translate(-247.546 -298.613)"/></g><g transform="translate(2151.25 637.968)"><path class="b" d="M66.851,149.54a4.13,4.13,0,0,0,3.091,3.449l18.705,4.676a.866.866,0,0,1,.01,1.681l-18.725,4.681a4.116,4.116,0,0,0-3.081,3.447l-4.959,36.364a.867.867,0,0,1-1.719,0l-4.959-36.364a4.116,4.116,0,0,0-3.081-3.447l-18.726-4.681a.864.864,0,0,1,0-1.678l18.727-4.682a4.116,4.116,0,0,0,3.08-3.446l4.959-36.365a.867.867,0,0,1,1.719,0C63.435,124.49,66.545,147.3,66.851,149.54Z" transform="translate(0 -86.067)"/><path class="b" d="M275.016,25.535a2.684,2.684,0,0,1-2.061-2.207L269.721.559a.651.651,0,0,0-1.29,0L265.2,23.327a2.675,2.675,0,0,1-2.053,2.206l-12.1,2.9a.647.647,0,0,0,0,1.259l12.1,2.9a2.675,2.675,0,0,1,2.054,2.206l3.224,22.7a.661.661,0,0,0,1.309,0l3.224-22.7a2.675,2.675,0,0,1,2.054-2.206l12.09-2.9a.65.65,0,0,0-.009-1.265Z" transform="translate(-166.737 0)"/><path class="b" d="M375.289,337.334a2.168,2.168,0,0,1-1.649-1.793l-2.462-17.6a.649.649,0,0,0-1.285.013l-2.46,17.587a2.16,2.16,0,0,1-1.643,1.792l-9.2,2.242a.647.647,0,0,0,0,1.258l9.2,2.241a2.16,2.16,0,0,1,1.643,1.792l2.46,17.586a.65.65,0,0,0,1.287,0l2.46-17.586a2.16,2.16,0,0,1,1.643-1.792l9.2-2.241a.648.648,0,0,0-.008-1.26Z" transform="translate(-247.544 -242.979)"/><path class="b" d="M61.894,310.641,66.263,278.6a188.469,188.469,0,0,1-10.445-26.67l-.6,4.41a4.116,4.116,0,0,1-3.08,3.446l-18.727,4.682a.864.864,0,0,0,0,1.678l18.726,4.681a4.116,4.116,0,0,1,3.081,3.447l4.959,36.364A.867.867,0,0,0,61.894,310.641Z" transform="translate(-0.002 -192.87)"/><path class="b" d="M265.487,90.783l-.29,2.045a2.675,2.675,0,0,1-2.053,2.206l-12.1,2.9a.647.647,0,0,0,0,1.259l12.1,2.9a2.675,2.675,0,0,1,2.054,2.206l3.224,22.7a.661.661,0,0,0,1.309,0l2.885-20.314A50.3,50.3,0,0,1,265.487,90.783Z" transform="translate(-166.736 -69.5)"/><path class="b" d="M367.437,400.5l2.459,17.586a.65.65,0,0,0,1.287,0l2.3-16.48a27.064,27.064,0,0,1-5.9-11.549l-.156,1.117a2.16,2.16,0,0,1-1.643,1.792l-9.2,2.242a.647.647,0,0,0,0,1.258l9.2,2.241A2.16,2.16,0,0,1,367.437,400.5Z" transform="translate(-247.546 -298.613)"/></g><g transform="translate(3413.25 207.968)"><path class="b" d="M66.851,149.54a4.13,4.13,0,0,0,3.091,3.449l18.705,4.676a.866.866,0,0,1,.01,1.681l-18.725,4.681a4.116,4.116,0,0,0-3.081,3.447l-4.959,36.364a.867.867,0,0,1-1.719,0l-4.959-36.364a4.116,4.116,0,0,0-3.081-3.447l-18.726-4.681a.864.864,0,0,1,0-1.678l18.727-4.682a4.116,4.116,0,0,0,3.08-3.446l4.959-36.365a.867.867,0,0,1,1.719,0C63.435,124.49,66.545,147.3,66.851,149.54Z" transform="translate(0 -86.067)"/><path class="b" d="M275.016,25.535a2.684,2.684,0,0,1-2.061-2.207L269.721.559a.651.651,0,0,0-1.29,0L265.2,23.327a2.675,2.675,0,0,1-2.053,2.206l-12.1,2.9a.647.647,0,0,0,0,1.259l12.1,2.9a2.675,2.675,0,0,1,2.054,2.206l3.224,22.7a.661.661,0,0,0,1.309,0l3.224-22.7a2.675,2.675,0,0,1,2.054-2.206l12.09-2.9a.65.65,0,0,0-.009-1.265Z" transform="translate(-166.737 0)"/><path class="b" d="M375.289,337.334a2.168,2.168,0,0,1-1.649-1.793l-2.462-17.6a.649.649,0,0,0-1.285.013l-2.46,17.587a2.16,2.16,0,0,1-1.643,1.792l-9.2,2.242a.647.647,0,0,0,0,1.258l9.2,2.241a2.16,2.16,0,0,1,1.643,1.792l2.46,17.586a.65.65,0,0,0,1.287,0l2.46-17.586a2.16,2.16,0,0,1,1.643-1.792l9.2-2.241a.648.648,0,0,0-.008-1.26Z" transform="translate(-247.544 -242.979)"/><path class="b" d="M61.894,310.641,66.263,278.6a188.469,188.469,0,0,1-10.445-26.67l-.6,4.41a4.116,4.116,0,0,1-3.08,3.446l-18.727,4.682a.864.864,0,0,0,0,1.678l18.726,4.681a4.116,4.116,0,0,1,3.081,3.447l4.959,36.364A.867.867,0,0,0,61.894,310.641Z" transform="translate(-0.002 -192.87)"/><path class="b" d="M265.487,90.783l-.29,2.045a2.675,2.675,0,0,1-2.053,2.206l-12.1,2.9a.647.647,0,0,0,0,1.259l12.1,2.9a2.675,2.675,0,0,1,2.054,2.206l3.224,22.7a.661.661,0,0,0,1.309,0l2.885-20.314A50.3,50.3,0,0,1,265.487,90.783Z" transform="translate(-166.736 -69.5)"/><path class="b" d="M367.437,400.5l2.459,17.586a.65.65,0,0,0,1.287,0l2.3-16.48a27.064,27.064,0,0,1-5.9-11.549l-.156,1.117a2.16,2.16,0,0,1-1.643,1.792l-9.2,2.242a.647.647,0,0,0,0,1.258l9.2,2.241A2.16,2.16,0,0,1,367.437,400.5Z" transform="translate(-247.546 -298.613)"/></g></g></svg>